<svg id="svg" version="1.1" xmlns="http://www.w3.org/2000/svg" xmlns:xlink="http://www.w3.org/1999/xlink" width="400" height="376.8" viewBox="0, 0, 400,376.8"><g id="svgg"><path id="path0" d="M208.471 100.043 C 208.371 100.143,207.358 100.319,206.219 100.436 C 181.607 102.959,156.344 118.451,143.456 138.926 C 142.673 140.170,141.483 142.036,140.813 143.073 C 137.351 148.426,132.556 159.315,131.350 164.562 C 131.016 166.013,130.496 167.996,130.194 168.968 C 128.179 175.446,128.060 198.891,130.004 206.450 C 130.212 207.257,130.670 209.274,131.022 210.933 C 137.234 240.161,163.264 266.857,193.311 274.813 C 201.974 277.107,203.454 277.281,214.138 277.254 C 269.427 277.115,308.599 230.576,301.581 173.363 C 300.931 168.061,298.207 158.366,296.459 155.137 C 296.235 154.722,295.934 153.874,295.791 153.252 C 295.511 152.038,292.347 145.555,290.824 143.073 C 290.316 142.243,289.788 141.310,289.653 140.999 C 289.518 140.688,288.475 139.076,287.336 137.418 C 273.851 117.777,251.270 104.076,226.956 100.784 C 226.230 100.686,225.042 100.511,224.317 100.396 C 222.577 100.119,208.703 99.811,208.471 100.043 " stroke="none" fill="#a30d1c" fill-rule="evenodd"></path><path id="path1" d="M203.016 7.944 C 157.573 10.889,113.715 32.742,83.382 67.555 C 81.450 69.772,79.746 71.638,79.595 71.702 C 79.443 71.767,77.787 73.770,75.914 76.155 C 27.491 137.800,24.032 224.130,67.351 289.915 C 70.342 294.458,73.473 298.766,74.747 300.094 C 75.443 300.820,76.595 302.177,77.306 303.110 C 108.700 344.293,161.047 369.879,214.138 369.990 C 327.178 370.226,412.024 264.960,389.591 152.309 C 371.845 63.191,292.915 2.118,203.016 7.944 M223.751 19.998 C 290.554 23.636,345.512 64.362,370.469 128.724 C 380.346 154.194,383.295 187.560,378.338 217.743 C 374.802 239.273,366.317 261.606,354.531 280.402 C 338.947 305.255,310.850 330.283,285.768 341.653 C 236.985 363.766,183.340 362.754,138.549 338.878 C 118.674 328.283,94.471 307.513,83.695 291.804 C 82.139 289.537,79.322 285.428,77.433 282.673 C 71.916 274.623,63.828 258.985,60.900 250.707 C 60.203 248.737,59.453 246.616,59.234 245.994 C 19.359 132.950,106.242 13.599,223.751 19.998 M229.450 34.933 C 227.818 40.129,223.538 73.143,224.366 74.140 C 225.298 75.264,234.742 77.445,240.636 77.898 L 243.735 78.137 244.348 76.851 C 247.299 70.664,246.490 69.692,237.041 68.069 C 235.462 67.798,235.329 67.188,235.871 62.677 C 236.156 60.307,236.499 60.234,241.588 61.454 C 243.312 61.867,244.866 62.205,245.042 62.205 C 245.469 62.205,247.376 54.193,247.024 53.872 C 246.873 53.733,244.908 53.146,242.658 52.568 C 240.409 51.989,238.494 51.324,238.404 51.090 C 238.239 50.659,239.199 46.066,239.522 45.743 C 239.672 45.594,247.125 46.815,249.423 47.365 C 250.232 47.559,251.718 44.004,252.358 40.339 L 252.588 39.020 241.940 36.847 C 236.083 35.653,230.926 34.577,230.479 34.457 C 229.899 34.301,229.605 34.437,229.450 34.933 M193.968 34.935 C 193.553 35.025,191.625 35.447,189.683 35.875 L 186.151 36.651 186.397 38.821 C 186.532 40.014,187.239 43.515,187.969 46.602 C 189.531 53.208,190.386 57.431,190.200 57.617 C 189.625 58.191,187.219 56.128,180.120 48.973 C 171.151 39.935,171.449 40.122,168.269 41.513 C 167.267 41.951,165.090 42.772,163.431 43.338 C 161.521 43.989,160.371 44.589,160.296 44.974 C 160.052 46.228,165.314 65.952,169.495 79.453 C 171.046 84.464,170.618 84.291,176.517 82.281 L 180.666 80.867 180.427 78.794 C 180.295 77.653,179.526 73.921,178.717 70.500 C 177.086 63.600,176.625 61.074,176.996 61.074 C 177.820 61.074,181.589 64.308,187.456 70.049 C 195.123 77.551,193.768 77.004,200.142 75.164 C 204.877 73.796,205.166 73.550,204.868 71.143 C 203.922 63.494,199.917 42.186,198.292 36.149 C 197.882 34.628,196.796 34.323,193.968 34.935 M276.321 48.336 C 274.769 50.466,273.940 52.126,273.116 54.756 L 272.438 56.919 273.919 58.223 C 274.734 58.940,276.122 59.917,277.003 60.394 C 279.326 61.652,279.738 60.734,269.175 77.851 C 267.013 81.354,265.286 85.090,265.532 85.731 C 265.758 86.321,271.526 90.245,272.978 90.797 C 274.047 91.203,273.248 92.371,283.120 75.966 C 288.291 67.372,287.557 67.924,291.311 69.803 C 293.011 70.653,294.665 71.248,294.987 71.124 C 295.653 70.869,299.460 65.174,300.285 63.202 L 300.830 61.897 292.828 56.465 C 286.445 52.132,280.257 48.186,277.770 46.863 C 277.621 46.784,276.969 47.447,276.321 48.336 M116.434 72.676 C 113.602 75.315,111.269 77.712,111.250 78.003 C 111.128 79.883,127.092 117.625,128.009 117.625 C 129.344 117.625,135.721 110.553,135.721 109.072 C 135.721 108.579,135.287 107.318,134.757 106.272 C 133.497 103.785,133.368 104.052,138.283 98.968 C 142.357 94.755,142.578 94.587,143.373 95.106 C 143.830 95.405,145.209 96.216,146.437 96.908 L 148.671 98.167 151.113 95.549 C 154.221 92.217,156.458 89.405,156.449 88.845 C 156.444 88.604,153.433 86.598,149.757 84.388 C 146.080 82.177,140.358 78.719,137.041 76.703 C 123.875 68.703,122.443 67.861,122.021 67.870 C 121.780 67.875,119.266 70.038,116.434 72.676 M129.258 84.610 C 130.251 85.113,131.899 86.300,132.921 87.248 L 134.779 88.971 133.270 90.281 C 129.932 93.182,128.733 92.819,127.084 88.412 C 125.447 84.037,126.050 82.984,129.258 84.610 M207.352 88.063 C 206.626 88.147,204.420 88.398,202.451 88.621 C 159.646 93.473,123.496 129.824,116.996 174.552 C 115.886 182.188,116.443 200.453,118.060 209.425 C 119.578 217.849,125.680 233.787,129.968 240.528 C 148.518 269.685,172.342 285.289,203.956 288.987 C 262.270 295.809,314.107 249.331,314.134 190.198 C 314.138 182.296,313.200 169.762,312.508 168.469 C 312.316 168.110,312.158 167.401,312.158 166.894 C 312.158 165.997,310.543 160.455,309.172 156.645 C 308.798 155.608,308.218 153.821,307.881 152.673 C 306.789 148.946,300.377 136.522,296.892 131.380 C 280.758 107.574,257.040 92.561,229.595 88.780 C 225.503 88.217,210.269 87.725,207.352 88.063 M224.317 100.396 C 225.042 100.511,226.230 100.686,226.956 100.784 C 246.734 103.462,266.816 113.760,279.548 127.754 C 283.870 132.504,288.725 138.868,289.653 140.999 C 289.788 141.310,290.316 142.243,290.824 143.073 C 292.347 145.555,295.511 152.038,295.791 153.252 C 295.934 153.874,296.235 154.722,296.459 155.137 C 298.207 158.366,300.931 168.061,301.581 173.363 C 307.929 225.114,277.020 268.098,227.333 276.616 C 222.679 277.414,205.913 277.522,201.697 276.781 C 167.515 270.779,137.871 243.159,131.022 210.933 C 130.670 209.274,130.212 207.257,130.004 206.450 C 128.060 198.891,128.179 175.446,130.194 168.968 C 130.496 167.996,131.016 166.013,131.350 164.562 C 132.561 159.294,137.371 148.366,140.808 143.073 C 141.481 142.036,142.673 140.170,143.456 138.926 C 156.344 118.451,181.607 102.959,206.219 100.436 C 207.358 100.319,208.371 100.143,208.471 100.043 C 208.703 99.811,222.577 100.119,224.317 100.396 M80.405 122.997 C 79.118 125.123,77.612 127.861,77.058 129.083 L 76.050 131.304 76.935 131.971 C 80.021 134.298,107.830 150.047,108.854 150.047 C 109.775 150.047,122.526 127.788,122.526 126.180 C 122.526 125.969,117.940 122.372,115.779 120.889 C 113.423 119.271,113.146 119.371,111.357 122.487 C 109.954 124.929,104.792 132.705,104.574 132.705 C 103.873 132.705,100.292 130.454,93.120 125.506 C 89.133 122.756,83.307 119.133,82.871 119.133 C 82.802 119.133,81.692 120.872,80.405 122.997 M76.833 155.900 C 74.895 156.521,71.764 159.276,70.735 161.267 C 68.857 164.898,65.125 187.877,66.247 188.897 C 66.409 189.044,70.273 189.621,74.835 190.179 C 79.397 190.736,87.596 191.790,93.055 192.520 C 98.514 193.249,103.058 193.769,103.152 193.674 C 103.432 193.395,104.802 185.035,104.804 183.590 C 104.809 180.976,103.414 180.169,97.916 179.608 C 94.704 179.280,94.894 179.756,94.978 172.257 C 95.063 164.674,94.526 162.034,92.480 159.989 C 89.073 156.582,81.160 154.514,76.833 155.900 M83.273 169.315 C 84.866 169.871,85.650 171.490,85.880 174.699 L 86.066 177.303 84.221 177.075 C 83.206 176.949,81.133 176.731,79.614 176.590 C 76.517 176.303,76.720 176.682,77.685 172.999 C 78.515 169.829,80.671 168.408,83.273 169.315 M350.761 174.227 C 347.248 175.017,345.150 178.093,344.036 184.086 C 342.727 191.127,340.648 192.950,337.677 189.662 C 335.524 187.279,335.408 184.679,337.249 180.106 L 338.124 177.932 337.300 177.395 C 335.532 176.243,331.347 174.486,330.837 174.682 C 330.074 174.975,328.469 180.329,327.991 184.179 C 326.370 197.222,335.437 206.498,345.242 201.829 C 347.999 200.516,349.191 198.637,350.622 193.348 C 352.047 188.082,353.189 186.404,355.301 186.472 C 358.737 186.583,359.347 189.394,357.348 195.905 C 355.917 200.563,355.912 200.546,359.354 202.214 C 363.746 204.343,364.537 204.259,365.620 201.550 C 368.638 194.002,368.095 182.540,364.514 178.195 C 361.926 175.055,355.423 173.179,350.761 174.227 M327.538 217.266 C 319.936 227.358,319.043 237.107,325.201 242.783 C 330.827 247.968,336.983 246.494,342.484 238.643 C 345.602 234.194,347.061 233.525,349.134 235.598 C 351.402 237.866,350.329 241.510,346.236 245.440 C 343.397 248.166,343.398 248.059,346.198 251.494 C 350.273 256.493,352.285 255.522,356.805 246.371 C 362.426 234.993,361.623 228.682,353.982 224.205 C 347.601 220.467,343.032 221.751,338.922 228.439 C 336.377 232.581,335.573 233.365,333.870 233.365 C 329.174 233.365,329.083 227.842,333.696 222.925 C 334.706 221.849,335.533 220.820,335.533 220.637 C 335.533 219.735,330.442 214.863,329.538 214.901 C 329.414 214.906,328.514 215.970,327.538 217.266 M309.435 251.367 C 307.389 253.532,299.671 264.201,298.367 266.666 L 297.005 269.241 299.775 271.946 C 304.910 276.963,321.779 292.214,323.723 293.598 L 324.859 294.407 325.999 293.198 C 328.780 290.247,338.486 277.506,339.662 275.262 C 340.327 273.995,335.444 269.180,333.493 269.180 C 333.392 269.180,331.919 270.961,330.219 273.139 C 326.721 277.620,326.833 277.569,324.465 275.760 C 322.247 274.066,322.255 273.983,325.017 270.318 C 328.159 266.148,328.162 265.506,325.049 263.100 C 322.047 260.780,322.443 260.673,319.301 264.656 C 316.191 268.599,315.754 268.739,313.154 266.635 C 310.926 264.832,310.877 265.080,314.420 260.344 C 318.087 255.442,318.085 255.896,314.463 252.839 C 311.109 250.009,310.802 249.919,309.435 251.367 M134.736 290.113 C 124.371 303.359,121.800 306.839,121.784 307.646 C 121.755 309.063,137.971 322.714,139.683 322.714 C 140.981 322.714,144.617 317.230,144.196 315.905 C 144.068 315.501,142.278 313.720,140.219 311.948 C 138.160 310.175,136.475 308.640,136.475 308.537 C 136.475 307.993,137.679 306.182,138.662 305.247 C 139.996 303.979,140.756 304.223,143.866 306.914 C 146.902 309.542,147.261 309.592,149.020 307.624 C 151.577 304.763,151.883 303.571,150.360 302.396 C 145.548 298.679,144.983 297.672,146.476 295.474 C 148.237 292.883,149.279 293.113,153.817 297.093 C 157.743 300.536,157.547 300.527,159.935 297.353 C 163.614 292.463,163.667 293.107,159.284 289.496 C 151.897 283.410,145.260 278.605,144.241 278.605 C 143.966 278.605,139.689 283.784,134.736 290.113 M279.696 283.823 C 276.347 284.930,273.838 286.460,267.174 291.452 L 260.947 296.118 261.496 297.446 C 263.079 301.277,274.840 321.541,278.601 326.919 L 280.355 329.426 284.475 326.800 C 289.420 323.649,289.444 323.559,286.573 318.869 C 281.509 310.595,284.303 309.576,294.511 315.973 L 297.449 317.815 302.070 314.368 C 304.612 312.472,306.692 310.733,306.692 310.503 C 306.692 310.070,303.477 308.376,297.698 305.762 L 294.359 304.253 294.575 302.645 C 295.776 293.710,295.151 290.690,291.291 286.767 C 287.947 283.369,284.057 282.381,279.696 283.823 M283.035 296.209 C 285.115 298.538,284.294 301.338,280.787 303.879 C 278.623 305.446,278.052 305.329,276.595 303.016 C 274.251 299.294,274.157 298.744,275.604 297.252 C 278.531 294.232,280.964 293.890,283.035 296.209 M172.780 298.056 C 172.907 298.659,173.957 303.054,175.114 307.823 C 177.858 319.134,177.903 318.938,171.442 323.868 C 157.372 334.604,158.137 333.035,165.323 336.416 C 171.319 339.238,170.906 339.313,175.453 334.579 C 179.151 330.727,181.058 329.131,181.967 329.126 C 182.423 329.123,183.723 332.785,185.092 337.924 C 186.583 343.522,189.008 344.958,196.978 344.958 L 198.237 344.958 197.724 342.790 C 197.085 340.087,196.321 337.903,193.627 331.083 C 192.456 328.117,191.394 324.938,191.268 324.017 L 191.039 322.343 198.158 315.190 C 202.074 311.256,205.278 307.735,205.278 307.365 C 205.278 306.516,200.236 305.093,196.041 304.758 L 193.214 304.532 191.042 307.003 C 188.462 309.938,186.687 311.326,186.463 310.583 C 186.380 310.309,186.021 308.812,185.666 307.257 C 184.450 301.937,183.917 301.335,178.274 298.902 C 173.352 296.780,172.484 296.647,172.780 298.056 M230.726 303.889 C 228.134 304.280,224.798 304.886,223.314 305.236 L 220.614 305.871 220.438 307.413 C 220.161 309.835,220.853 319.960,222.181 332.893 L 223.401 344.769 226.969 344.651 C 228.932 344.586,231.555 344.332,232.799 344.086 L 235.061 343.638 235.061 337.047 L 235.061 330.457 240.177 329.102 C 249.608 326.604,251.554 324.022,250.962 314.797 C 250.322 304.844,244.650 301.786,230.726 303.889 M239.058 313.019 C 243.153 315.769,240.684 321.206,235.341 321.206 C 233.169 321.206,232.611 320.307,232.611 316.813 C 232.611 312.706,235.799 310.830,239.058 313.019 " stroke="none" fill="#040404" fill-rule="evenodd"></path><path id="path2" d="M197.738 0.552 C 186.172 1.655,166.419 5.222,165.504 6.374 C 165.401 6.504,163.280 7.191,160.792 7.899 C 155.834 9.310,146.953 12.384,146.654 12.792 C 146.550 12.934,145.872 13.278,145.146 13.558 C 140.450 15.367,132.376 19.038,131.947 19.559 C 131.842 19.688,129.806 20.787,127.423 22.002 C 122.904 24.306,120.813 25.574,113.289 30.571 C 106.865 34.837,102.418 37.988,101.979 38.582 C 101.772 38.864,100.440 39.962,99.020 41.023 C 93.844 44.892,78.497 59.814,75.101 64.279 C 74.155 65.523,72.606 67.402,71.658 68.454 C 69.109 71.282,62.723 80.054,60.536 83.731 C 59.845 84.892,58.963 86.207,58.575 86.654 C 57.367 88.046,52.525 96.795,49.363 103.299 C 47.699 106.720,45.941 110.283,45.455 111.216 C 44.436 113.172,41.365 121.190,40.256 124.788 C 39.841 126.136,39.369 127.323,39.208 127.427 C 38.722 127.739,35.938 137.896,34.484 144.655 C 33.735 148.139,32.974 151.269,32.794 151.610 C 32.441 152.276,30.831 162.901,30.146 169.086 C 29.478 175.123,29.242 196.214,29.764 203.264 C 30.444 212.449,32.016 224.347,32.769 226.013 C 32.956 226.428,33.725 229.617,34.478 233.100 C 35.881 239.598,38.111 247.755,39.033 249.764 C 39.532 250.853,40.460 253.317,43.185 260.792 C 44.363 264.023,51.131 278.110,53.374 281.998 C 53.912 282.931,54.798 284.543,55.342 285.580 C 56.450 287.691,58.008 290.224,58.713 291.059 C 59.643 292.162,64.090 298.937,64.090 299.251 C 64.090 299.429,64.572 300.073,65.161 300.682 C 65.749 301.292,67.130 303.104,68.229 304.709 C 69.328 306.313,70.760 308.179,71.411 308.856 C 72.063 309.532,73.542 311.276,74.700 312.733 C 78.485 317.495,93.529 332.232,98.645 336.188 C 99.921 337.175,101.787 338.629,102.792 339.419 C 106.541 342.367,111.407 345.789,114.932 347.956 C 116.931 349.185,119.016 350.539,119.565 350.963 C 120.113 351.388,122.827 352.929,125.597 354.387 C 128.366 355.846,130.886 357.209,131.197 357.417 C 132.152 358.053,136.845 360.247,140.811 361.909 C 142.884 362.778,145.598 363.970,146.843 364.557 C 149.052 365.599,157.218 368.331,162.111 369.666 C 163.459 370.034,164.743 370.473,164.965 370.642 C 166.754 372.008,185.914 375.383,197.926 376.448 C 218.965 378.313,253.778 375.225,264.090 370.579 C 264.505 370.392,266.880 369.651,269.369 368.932 C 274.983 367.309,279.851 365.600,283.095 364.113 C 284.462 363.486,286.767 362.496,288.219 361.913 C 291.637 360.540,297.590 357.742,297.832 357.394 C 297.936 357.245,299.751 356.261,301.865 355.207 C 305.618 353.336,312.905 348.949,317.059 346.060 C 318.200 345.267,320.490 343.690,322.149 342.555 C 323.808 341.421,325.822 339.886,326.626 339.144 C 327.430 338.402,328.169 337.795,328.269 337.795 C 328.369 337.795,329.832 336.658,331.521 335.269 C 340.523 327.859,350.457 317.886,357.356 309.331 C 358.860 307.465,360.631 305.280,361.290 304.475 C 361.949 303.671,363.474 301.550,364.679 299.763 C 365.884 297.975,367.178 296.173,367.556 295.759 C 367.933 295.344,369.053 293.648,370.044 291.989 C 371.036 290.330,372.589 287.828,373.495 286.428 C 375.058 284.016,377.097 280.249,381.182 272.228 C 382.176 270.275,383.802 266.628,384.794 264.122 C 385.786 261.617,386.702 259.482,386.829 259.378 C 387.396 258.915,391.789 245.648,392.883 241.093 C 393.132 240.057,393.456 239.123,393.602 239.020 C 394.222 238.579,396.945 225.438,398.092 217.342 C 401.520 193.160,400.515 167.072,395.244 143.450 C 394.504 140.133,393.778 137.334,393.630 137.230 C 393.482 137.126,392.975 135.598,392.502 133.836 C 391.049 128.416,388.290 120.216,386.949 117.334 C 386.248 115.826,385.674 114.512,385.674 114.413 C 385.674 114.315,385.187 113.173,384.592 111.877 C 383.997 110.580,382.855 108.077,382.055 106.315 C 381.254 104.552,380.489 103.025,380.355 102.922 C 380.220 102.818,379.180 100.867,378.044 98.586 C 376.908 96.305,375.488 93.641,374.888 92.665 C 374.289 91.690,372.547 88.836,371.018 86.323 C 369.489 83.810,367.771 81.242,367.199 80.616 C 366.628 79.991,365.931 79.028,365.651 78.476 C 364.810 76.822,361.191 72.008,360.789 72.008 C 360.583 72.008,360.415 71.828,360.415 71.609 C 360.415 68.013,333.963 42.009,322.578 34.412 C 321.156 33.462,319.604 32.330,319.129 31.894 C 318.655 31.459,317.274 30.519,316.061 29.806 C 314.848 29.093,312.444 27.595,310.719 26.478 C 308.995 25.360,305.602 23.415,303.179 22.155 C 300.757 20.895,298.520 19.650,298.209 19.390 C 297.669 18.937,288.344 14.703,287.887 14.703 C 287.767 14.703,286.209 14.020,284.426 13.185 C 281.222 11.684,273.729 9.077,268.116 7.510 C 266.524 7.066,265.052 6.599,264.844 6.472 C 264.637 6.345,264.298 6.202,264.090 6.154 C 263.883 6.106,262.441 5.720,260.886 5.295 C 245.107 0.984,216.079 -1.196,197.738 0.552 M224.317 7.550 C 284.098 10.641,336.376 42.241,367.752 94.251 C 371.308 100.145,378.389 114.106,379.225 116.871 C 379.507 117.804,380.647 120.884,381.758 123.715 C 391.077 147.457,395.338 179.993,392.539 206.032 C 380.003 322.652,269.699 396.626,160.415 361.704 C 140.466 355.329,123.430 345.956,103.487 330.384 C 96.607 325.012,86.284 314.620,79.388 306.126 C 77.452 303.742,75.454 301.367,74.946 300.848 C 73.916 299.795,68.487 292.436,67.019 290.104 C 39.604 246.542,30.785 200.934,40.374 152.309 C 46.068 123.438,61.781 90.996,79.736 71.044 C 97.006 51.854,107.079 43.231,124.456 32.763 C 155.852 13.850,188.197 5.683,224.317 7.550 M201.885 20.568 C 143.462 26.048,94.651 59.518,68.038 112.347 C 48.273 151.581,44.584 194.505,57.185 238.632 C 58.338 242.670,59.498 246.317,59.762 246.738 C 60.026 247.158,60.701 248.860,61.262 250.518 C 64.615 260.440,72.573 275.486,79.862 285.685 C 81.452 287.909,83.278 290.589,83.921 291.640 C 90.769 302.847,114.375 324.126,131.574 334.594 C 184.390 366.742,255.396 364.446,307.088 328.920 C 339.062 306.946,360.470 277.702,373.176 238.643 C 388.581 191.289,380.004 134.404,351.036 91.800 C 318.097 43.356,259.138 15.198,201.885 20.568 M237.175 35.454 C 241.196 36.293,245.419 37.212,246.560 37.498 C 247.700 37.783,249.625 38.215,250.837 38.458 L 253.040 38.900 252.783 40.270 C 252.366 42.494,250.715 47.453,250.308 47.704 C 250.101 47.832,247.730 47.473,245.039 46.906 C 239.434 45.725,239.889 45.589,239.175 48.650 C 238.512 51.495,238.058 51.067,243.211 52.448 C 245.571 53.080,247.546 53.641,247.599 53.694 C 247.734 53.829,245.795 62.342,245.580 62.557 C 245.483 62.654,244.434 62.520,243.249 62.260 C 235.759 60.619,236.227 60.472,235.883 64.578 C 235.613 67.794,235.120 67.308,239.401 68.043 C 246.452 69.254,247.588 71.114,244.780 76.856 L 244.109 78.228 241.470 78.108 C 236.563 77.886,227.557 76.174,224.882 74.955 C 224.033 74.568,223.940 74.307,223.940 72.313 C 223.940 65.421,228.572 33.930,229.585 33.930 C 229.739 33.930,233.154 34.616,237.175 35.454 M198.476 35.533 C 199.778 38.653,205.752 71.645,205.283 73.124 C 205.007 73.994,202.923 74.922,199.291 75.792 C 193.904 77.084,194.548 77.381,187.212 70.217 C 180.936 64.089,177.802 61.469,177.321 61.950 C 177.033 62.238,177.460 64.266,179.239 71.057 C 180.014 74.013,180.654 77.406,180.697 78.782 L 180.773 81.235 177.191 82.434 C 175.221 83.093,172.948 83.688,172.139 83.758 L 170.668 83.883 169.202 79.561 C 166.848 72.625,159.859 46.958,159.853 45.229 C 159.849 44.275,169.150 40.298,171.313 40.329 C 171.741 40.335,174.485 42.880,178.099 46.622 C 185.553 54.342,189.774 58.066,189.926 57.057 C 189.983 56.675,189.178 52.999,188.135 48.888 C 187.092 44.777,186.132 40.261,186.001 38.852 L 185.763 36.290 188.546 35.671 C 196.595 33.882,197.781 33.866,198.476 35.533 M281.417 48.543 C 282.670 49.299,286.070 51.521,288.973 53.479 C 291.876 55.437,295.735 58.033,297.549 59.248 C 301.360 61.799,301.337 61.717,299.323 65.587 C 296.059 71.861,295.157 72.273,290.326 69.695 C 287.885 68.393,288.079 68.271,285.470 72.762 C 284.447 74.524,282.035 78.511,280.112 81.621 C 278.189 84.731,276.088 88.163,275.443 89.248 C 273.872 91.889,273.592 91.846,267.955 88.100 C 264.047 85.504,264.015 85.675,270.329 75.401 C 279.179 61.002,278.745 61.986,276.806 60.729 C 271.766 57.461,271.492 56.715,273.713 52.308 C 276.980 45.824,276.946 45.841,281.417 48.543 M124.041 68.369 C 124.763 68.856,128.238 71.002,131.762 73.138 C 135.287 75.275,140.547 78.463,143.450 80.223 C 146.352 81.983,150.551 84.515,152.780 85.848 C 155.009 87.181,156.833 88.503,156.833 88.786 C 156.833 89.452,152.939 94.294,150.513 96.645 L 148.625 98.473 145.660 96.749 L 142.696 95.025 138.374 99.338 L 134.053 103.651 134.928 105.643 C 136.254 108.661,136.281 109.141,135.225 110.943 C 133.998 113.037,128.704 118.085,127.898 117.930 C 127.279 117.811,123.292 109.294,119.462 99.906 C 118.404 97.314,116.805 93.470,115.908 91.365 C 115.011 89.259,113.499 85.390,112.548 82.766 L 110.818 77.995 111.677 76.981 C 113.413 74.929,121.601 67.524,122.156 67.504 C 122.470 67.493,123.319 67.882,124.041 68.369 M126.787 85.545 C 127.483 91.421,129.637 93.111,132.893 90.335 L 134.400 89.050 133.647 88.212 C 132.697 87.154,128.916 84.566,127.577 84.057 L 126.565 83.672 126.787 85.545 M229.972 88.392 C 256.467 92.512,279.438 106.575,295.211 128.329 C 300.571 135.721,307.033 148.106,308.412 153.629 C 308.567 154.251,309.037 155.608,309.457 156.645 C 311.755 162.319,312.421 165.184,313.536 174.175 C 318.548 214.595,302.538 251.048,270.036 273.222 C 225.377 303.690,162.210 291.159,133.149 246.067 C 131.972 244.240,130.274 241.611,129.376 240.223 C 127.568 237.428,125.076 232.399,124.034 229.442 C 123.662 228.386,122.410 224.849,121.253 221.583 C 117.283 210.381,115.048 192.676,116.048 180.357 C 119.807 134.090,156.378 94.427,200.797 88.446 C 203.261 88.115,205.787 87.773,206.409 87.687 C 209.220 87.298,226.206 87.806,229.972 88.392 M85.172 119.937 C 87.379 121.175,90.536 123.271,96.513 127.464 C 101.053 130.649,104.397 132.524,104.772 132.095 C 104.932 131.912,106.475 129.557,108.200 126.861 C 112.648 119.910,113.175 119.133,113.435 119.134 C 113.900 119.137,116.284 120.743,118.715 122.691 C 120.085 123.789,121.588 124.885,122.055 125.128 C 122.521 125.370,122.903 125.781,122.903 126.040 C 122.903 127.573,110.637 149.428,109.320 150.242 C 108.850 150.533,104.130 148.119,94.062 142.439 C 78.428 133.619,75.778 131.967,75.778 131.035 C 75.778 130.195,82.339 118.756,82.821 118.756 C 82.957 118.756,84.015 119.287,85.172 119.937 M85.823 156.122 C 94.016 158.647,95.104 160.378,95.381 171.328 L 95.570 178.848 98.853 179.322 C 105.250 180.244,105.593 180.811,104.415 188.501 C 103.954 191.508,103.543 194.011,103.500 194.063 C 103.369 194.224,67.204 189.646,66.514 189.381 C 64.886 188.757,67.664 167.393,70.085 161.919 C 72.628 156.171,78.712 153.930,85.823 156.122 M79.583 170.245 C 78.548 171.116,77.286 174.024,77.286 175.538 C 77.286 176.180,78.031 176.353,82.092 176.654 L 85.580 176.912 85.580 174.619 C 85.580 169.954,82.553 167.746,79.583 170.245 M360.034 174.950 C 367.708 177.910,370.210 188.952,366.036 201.438 C 364.839 205.018,363.818 205.145,358.859 202.331 C 355.522 200.438,355.509 200.390,357.008 195.522 C 358.482 190.731,358.525 188.472,357.159 187.398 C 354.286 185.137,352.394 187.173,350.842 194.196 C 347.872 207.636,330.955 205.985,328.032 191.970 C 326.800 186.061,328.770 174.552,331.014 174.552 C 331.837 174.552,338.549 177.355,338.549 177.699 C 338.549 177.751,338.043 179.227,337.425 180.979 C 335.822 185.527,336.241 188.597,338.684 190.198 C 341.037 191.740,342.412 190.184,343.456 184.792 C 345.481 174.343,350.591 171.309,360.034 174.950 M333.309 217.492 C 336.417 220.599,336.391 220.384,333.986 223.040 C 330.055 227.380,329.550 231.505,332.784 232.856 C 334.696 233.656,335.598 232.971,338.380 228.607 C 342.712 221.811,346.674 220.366,352.981 223.279 C 361.746 227.328,362.994 235.764,356.592 247.691 C 352.272 255.741,350.738 256.466,346.674 252.382 C 342.913 248.602,342.866 248.211,345.840 245.429 C 349.775 241.748,351.017 237.882,348.933 235.798 C 347.054 233.919,346.108 234.401,342.552 239.057 C 336.558 246.903,330.149 248.314,324.800 242.965 C 318.917 237.082,319.704 227.437,326.861 217.712 C 329.531 214.085,329.890 214.073,333.309 217.492 M314.583 252.543 C 318.491 255.904,318.476 255.356,314.797 260.320 C 311.298 265.043,311.446 264.568,313.007 266.045 C 315.687 268.582,315.817 268.548,319.019 264.467 C 322.096 260.545,322.001 260.592,324.132 261.959 C 328.673 264.873,328.787 265.847,325.152 270.706 C 322.693 273.992,322.732 273.668,324.601 275.357 C 326.657 277.214,326.752 277.177,329.635 273.370 C 333.199 268.666,333.250 268.627,334.937 269.332 C 336.196 269.858,340.434 273.857,340.434 274.520 C 340.434 275.577,326.168 294.231,324.977 294.732 C 324.655 294.867,320.260 291.175,314.529 285.957 C 295.854 268.951,296.541 269.650,297.092 268.202 C 298.283 265.068,310.111 249.318,311.026 249.647 C 311.206 249.712,312.806 251.015,314.583 252.543 M148.242 280.616 C 152.026 283.146,160.470 289.836,162.198 291.674 L 163.228 292.769 162.487 294.264 C 159.348 300.598,157.826 301.075,153.319 297.134 C 149.511 293.805,148.751 293.579,147.166 295.308 C 145.419 297.215,145.541 297.862,148.046 299.978 C 149.226 300.975,150.592 302.174,151.083 302.643 L 151.975 303.496 150.969 305.343 C 148.474 309.927,147.202 310.250,143.721 307.185 C 140.360 304.226,140.063 304.162,138.319 306.032 C 136.334 308.161,136.384 308.313,140.115 311.470 C 141.910 312.989,143.728 314.703,144.155 315.278 L 144.931 316.325 144.002 318.061 C 143.491 319.016,142.367 320.581,141.505 321.539 L 139.937 323.280 138.622 322.582 C 136.299 321.348,127.863 314.484,123.383 310.182 C 121.284 308.166,121.081 307.842,121.462 307.121 C 121.966 306.167,127.527 298.756,131.554 293.672 C 133.120 291.694,135.504 288.654,136.852 286.916 C 144.728 276.756,143.492 277.440,148.242 280.616 M287.865 283.607 C 293.757 286.666,296.333 292.627,295.073 300.283 C 294.393 304.412,294.273 304.264,300.094 306.524 C 304.622 308.282,307.257 309.712,307.257 310.410 C 307.257 311.025,298.306 317.814,297.496 317.813 C 297.163 317.812,295.455 316.949,293.702 315.895 C 284.275 310.225,282.478 311.097,287.028 319.130 C 288.201 321.202,289.161 323.166,289.161 323.493 C 289.161 324.475,280.479 330.031,279.892 329.425 C 279.239 328.751,271.871 317.010,270.096 313.815 C 269.302 312.385,268.118 310.368,267.465 309.331 C 265.854 306.774,262.648 300.768,261.472 298.107 L 260.511 295.930 262.249 294.713 C 263.206 294.044,265.765 292.121,267.936 290.439 C 276.810 283.568,283.423 281.301,287.865 283.607 M278.399 295.766 C 277.372 296.289,276.062 297.104,275.488 297.577 L 274.444 298.437 275.586 300.680 C 277.910 305.241,278.750 305.499,281.759 302.575 C 285.814 298.634,283.193 293.322,278.399 295.766 M174.034 296.846 C 174.837 297.132,177.313 298.166,179.536 299.143 L 183.577 300.919 184.671 303.110 C 185.274 304.314,185.989 306.419,186.260 307.787 C 186.878 310.894,186.851 310.898,190.409 307.257 C 193.818 303.770,193.640 303.813,199.551 305.037 C 203.471 305.848,206.221 306.752,206.221 307.227 C 206.221 307.373,203.925 309.772,201.120 312.559 C 198.314 315.345,194.928 318.830,193.596 320.302 L 191.173 322.979 192.890 327.842 C 199.785 347.369,199.620 345.592,194.482 344.980 C 186.647 344.048,186.228 343.717,184.570 337.160 C 182.174 327.686,182.385 327.736,175.495 334.987 C 171.274 339.429,171.210 339.438,164.644 336.459 C 157.929 333.413,157.907 333.539,166.212 327.472 C 176.984 319.603,177.659 318.590,176.045 312.724 C 173.507 303.502,171.925 296.324,172.431 296.324 C 172.509 296.324,173.230 296.559,174.034 296.846 M244.364 303.754 C 249.378 306.021,251.272 309.464,251.272 316.305 C 251.272 322.040,250.115 325.241,247.389 327.045 C 246.257 327.794,237.073 330.516,235.314 330.624 C 235.245 330.628,235.310 333.497,235.458 337.000 C 235.714 343.034,235.690 343.389,235.007 343.754 C 234.004 344.292,228.920 344.958,225.825 344.958 L 223.240 344.958 223.019 342.978 C 222.897 341.890,222.456 337.945,222.039 334.213 C 220.347 319.084,220.135 316.652,220.060 311.488 C 219.968 305.192,219.572 305.756,224.865 304.639 C 234.969 302.509,241.005 302.235,244.364 303.754 M234.485 313.173 C 233.101 314.121,233.000 314.386,232.994 317.082 C 232.986 320.450,233.426 320.992,235.972 320.747 C 239.426 320.415,241.368 318.206,240.563 315.521 C 239.759 312.836,236.704 311.655,234.485 313.173 " stroke="none" fill="#fbfbbc" fill-rule="evenodd"></path><path id="path3" d="M204.812 7.811 C 205.385 7.897,206.233 7.895,206.697 7.805 C 207.161 7.716,206.692 7.645,205.655 7.648 C 204.618 7.651,204.239 7.724,204.812 7.811 M223.662 7.811 C 224.235 7.897,225.083 7.895,225.547 7.805 C 226.011 7.716,225.542 7.645,224.505 7.648 C 223.468 7.651,223.089 7.724,223.662 7.811 M233.836 8.554 C 234.199 8.649,234.793 8.649,235.156 8.554 C 235.518 8.459,235.221 8.382,234.496 8.382 C 233.770 8.382,233.473 8.459,233.836 8.554 M191.989 8.931 C 192.352 9.026,192.945 9.026,193.308 8.931 C 193.671 8.836,193.374 8.759,192.648 8.759 C 191.923 8.759,191.626 8.836,191.989 8.931 M236.852 8.931 C 237.215 9.026,237.809 9.026,238.172 8.931 C 238.534 8.836,238.238 8.759,237.512 8.759 C 236.786 8.759,236.489 8.836,236.852 8.931 M267.861 15.457 C 268.275 15.635,268.869 15.781,269.180 15.781 C 269.536 15.781,269.467 15.661,268.992 15.457 C 268.577 15.279,267.983 15.133,267.672 15.133 C 267.316 15.133,267.385 15.253,267.861 15.457 M212.927 19.884 C 214.231 19.957,216.267 19.957,217.451 19.882 C 218.635 19.808,217.568 19.747,215.080 19.748 C 212.592 19.749,211.623 19.810,212.927 19.884 M143.638 22.620 C 142.912 23.017,142.488 23.343,142.696 23.343 C 142.903 23.343,143.666 23.017,144.392 22.620 C 145.118 22.223,145.542 21.898,145.335 21.898 C 145.127 21.898,144.364 22.223,143.638 22.620 M287.276 22.809 C 287.795 23.105,288.388 23.347,288.596 23.347 C 288.803 23.347,288.549 23.105,288.030 22.809 C 287.512 22.512,286.918 22.270,286.711 22.270 C 286.503 22.270,286.758 22.512,287.276 22.809 M133.365 27.737 C 131.955 28.501,132.041 28.820,133.459 28.087 C 134.081 27.765,134.590 27.421,134.590 27.323 C 134.590 27.080,134.550 27.094,133.365 27.737 M266.541 28.012 C 266.541 28.267,271.152 29.822,271.343 29.631 C 271.425 29.549,270.589 29.187,269.487 28.824 C 268.385 28.462,267.271 28.087,267.012 27.991 C 266.753 27.896,266.541 27.905,266.541 28.012 M158.907 29.608 C 157.964 30.062,157.933 30.114,158.718 29.922 C 159.786 29.661,160.987 29.049,160.415 29.058 C 160.207 29.061,159.529 29.308,158.907 29.608 M195.952 34.574 C 196.421 34.664,197.099 34.661,197.460 34.566 C 197.820 34.472,197.436 34.398,196.607 34.402 C 195.778 34.407,195.483 34.484,195.952 34.574 M177.568 46.560 C 178.695 47.700,179.701 48.633,179.805 48.633 C 179.908 48.633,179.072 47.700,177.945 46.560 C 176.819 45.419,175.813 44.486,175.709 44.486 C 175.605 44.486,176.442 45.419,177.568 46.560 M332.516 51.767 C 332.516 51.832,333.068 52.384,333.742 52.993 L 334.967 54.100 333.860 52.875 C 332.828 51.733,332.516 51.476,332.516 51.767 M185.862 54.854 C 186.566 55.580,187.226 56.173,187.330 56.173 C 187.433 56.173,186.943 55.580,186.239 54.854 C 185.536 54.128,184.876 53.534,184.772 53.534 C 184.668 53.534,185.159 54.128,185.862 54.854 M92.542 57.399 L 90.292 59.755 92.648 57.505 C 93.944 56.267,95.005 55.207,95.005 55.148 C 95.005 54.870,94.633 55.210,92.542 57.399 M336.287 55.146 C 336.287 55.203,337.601 56.518,339.208 58.068 L 342.130 60.886 339.312 57.964 C 336.695 55.251,336.287 54.870,336.287 55.146 M225.158 60.320 C 225.158 61.046,225.236 61.343,225.331 60.980 C 225.425 60.617,225.425 60.024,225.331 59.661 C 225.236 59.298,225.158 59.595,225.158 60.320 M106.109 61.923 L 104.618 63.525 106.221 62.035 C 107.711 60.649,107.996 60.320,107.711 60.320 C 107.649 60.320,106.928 61.041,106.109 61.923 M236.664 60.964 C 237.130 61.053,237.893 61.053,238.360 60.964 C 238.827 60.874,238.445 60.800,237.512 60.800 C 236.579 60.800,236.197 60.874,236.664 60.964 M277.903 61.394 C 278.223 61.907,278.175 62.346,277.699 63.266 C 277.357 63.927,277.163 64.467,277.266 64.467 C 278.151 64.467,278.861 61.253,278.045 60.940 C 277.593 60.767,277.566 60.854,277.903 61.394 M245.429 61.549 C 245.429 61.880,245.132 62.228,244.769 62.323 C 244.151 62.484,244.152 62.498,244.781 62.539 C 245.463 62.583,246.094 61.614,245.664 61.184 C 245.535 61.055,245.429 61.219,245.429 61.549 M326.673 63.336 C 327.904 64.581,328.996 65.598,329.100 65.598 C 329.204 65.598,328.281 64.581,327.050 63.336 C 325.819 62.092,324.727 61.074,324.623 61.074 C 324.519 61.074,325.442 62.092,326.673 63.336 M344.015 63.336 C 344.825 64.166,345.572 64.844,345.676 64.844 C 345.780 64.844,345.202 64.166,344.392 63.336 C 343.582 62.507,342.835 61.828,342.731 61.828 C 342.627 61.828,343.205 62.507,344.015 63.336 M86.313 63.996 L 85.014 65.410 86.428 64.111 C 87.744 62.901,88.015 62.582,87.727 62.582 C 87.664 62.582,87.028 63.219,86.313 63.996 M98.209 69.369 C 95.728 71.857,93.782 73.893,93.885 73.893 C 93.989 73.893,96.105 71.857,98.586 69.369 C 101.068 66.880,103.014 64.844,102.910 64.844 C 102.806 64.844,100.691 66.880,98.209 69.369 M184.543 67.484 C 185.983 68.935,187.247 70.123,187.350 70.123 C 187.454 70.123,186.360 68.935,184.920 67.484 C 183.480 66.032,182.216 64.844,182.113 64.844 C 182.009 64.844,183.103 66.032,184.543 67.484 M347.220 66.847 C 347.220 66.912,347.771 67.464,348.445 68.073 L 349.670 69.180 348.563 67.955 C 347.531 66.813,347.220 66.556,347.220 66.847 M119.497 69.651 L 117.436 71.819 119.510 69.884 C 120.650 68.820,121.838 67.858,122.149 67.746 C 122.643 67.569,122.641 67.539,122.136 67.513 C 121.818 67.497,120.630 68.459,119.497 69.651 M80.466 70.594 L 79.359 71.819 80.584 70.712 C 81.726 69.680,81.983 69.369,81.692 69.369 C 81.627 69.369,81.075 69.920,80.466 70.594 M224.027 70.877 C 224.027 71.602,224.105 71.899,224.200 71.536 C 224.294 71.173,224.294 70.580,224.200 70.217 C 224.105 69.854,224.027 70.151,224.027 70.877 M190.763 73.634 C 190.763 73.698,191.315 74.250,191.989 74.859 L 193.214 75.966 192.107 74.741 C 191.075 73.599,190.763 73.342,190.763 73.634 M113.101 75.589 C 112.185 76.522,111.521 77.286,111.624 77.286 C 111.728 77.286,112.562 76.522,113.478 75.589 C 114.394 74.656,115.058 73.893,114.954 73.893 C 114.851 73.893,114.017 74.656,113.101 75.589 M142.696 80.120 C 143.110 80.458,143.789 80.900,144.204 81.104 L 144.958 81.474 144.204 80.860 C 143.789 80.523,143.110 80.080,142.696 79.876 L 141.942 79.506 142.696 80.120 M265.208 84.868 C 265.039 85.400,265.180 85.868,265.633 86.281 C 266.264 86.856,266.278 86.855,265.829 86.257 C 265.564 85.905,265.458 85.268,265.593 84.844 C 265.728 84.419,265.753 84.072,265.649 84.072 C 265.546 84.072,265.347 84.430,265.208 84.868 M68.238 86.145 C 67.596 87.078,67.155 87.842,67.259 87.842 C 67.362 87.842,67.973 87.078,68.615 86.145 C 69.256 85.212,69.697 84.449,69.593 84.449 C 69.490 84.449,68.879 85.212,68.238 86.145 M211.970 87.745 C 213.577 87.816,216.206 87.816,217.813 87.745 C 219.420 87.674,218.106 87.616,214.892 87.616 C 211.678 87.616,210.363 87.674,211.970 87.745 M205.561 88.112 C 206.131 88.198,207.064 88.198,207.634 88.112 C 208.205 88.025,207.738 87.955,206.598 87.955 C 205.457 87.955,204.991 88.025,205.561 88.112 M222.526 88.112 C 223.096 88.198,224.029 88.198,224.599 88.112 C 225.170 88.025,224.703 87.955,223.563 87.955 C 222.422 87.955,221.956 88.025,222.526 88.112 M134.006 88.525 C 134.167 88.809,133.996 89.372,133.604 89.845 C 132.937 90.651,132.942 90.650,133.835 89.825 C 134.598 89.121,134.664 88.902,134.237 88.506 C 133.824 88.122,133.779 88.125,134.006 88.525 M202.168 88.479 C 202.531 88.573,203.124 88.573,203.487 88.479 C 203.850 88.384,203.553 88.306,202.828 88.306 C 202.102 88.306,201.805 88.384,202.168 88.479 M226.673 88.479 C 227.036 88.573,227.630 88.573,227.992 88.479 C 228.355 88.384,228.058 88.306,227.333 88.306 C 226.607 88.306,226.310 88.384,226.673 88.479 M351.541 92.271 C 352.122 93.153,352.670 93.874,352.758 93.874 C 353.029 93.874,351.586 91.579,351.020 91.111 C 350.725 90.868,350.960 91.390,351.541 92.271 M153.228 93.214 L 152.121 94.439 153.346 93.332 C 154.488 92.300,154.744 91.989,154.453 91.989 C 154.388 91.989,153.837 92.540,153.228 93.214 M75.921 97.361 C 74.624 99.563,74.539 99.751,75.200 98.963 C 75.966 98.051,76.626 96.890,76.379 96.890 C 76.280 96.890,76.074 97.102,75.921 97.361 M135.708 101.697 L 133.648 103.864 135.815 101.804 C 137.829 99.889,138.156 99.529,137.876 99.529 C 137.817 99.529,136.841 100.504,135.708 101.697 M371.159 101.037 C 371.481 101.659,371.829 102.168,371.933 102.168 C 372.036 102.168,371.858 101.659,371.536 101.037 C 371.215 100.415,370.867 99.906,370.763 99.906 C 370.659 99.906,370.838 100.415,371.159 101.037 M120.291 101.602 C 120.291 101.810,120.533 102.403,120.829 102.922 C 121.126 103.440,121.368 103.695,121.368 103.487 C 121.368 103.280,121.126 102.686,120.829 102.168 C 120.533 101.649,120.291 101.395,120.291 101.602 M272.573 105.672 C 272.573 105.768,273.371 106.501,274.346 107.300 C 275.321 108.099,275.998 108.556,275.849 108.315 C 275.532 107.803,272.573 105.415,272.573 105.672 M68.408 110.497 C 68.076 111.138,67.872 111.730,67.954 111.812 C 68.035 111.893,68.385 111.369,68.729 110.646 C 69.505 109.020,69.236 108.895,68.408 110.497 M279.343 111.310 C 280.268 112.295,281.074 113.101,281.134 113.101 C 281.417 113.101,281.118 112.762,279.453 111.200 L 277.663 109.519 279.343 111.310 M376.280 111.027 C 376.280 111.235,376.606 111.998,377.003 112.724 C 377.400 113.450,377.725 113.874,377.725 113.666 C 377.725 113.459,377.400 112.696,377.003 111.970 C 376.606 111.244,376.280 110.820,376.280 111.027 M131.177 115.269 L 129.877 116.682 131.291 115.383 C 132.069 114.669,132.705 114.032,132.705 113.969 C 132.705 113.682,132.386 113.953,131.177 115.269 M145.889 116.400 L 143.450 118.944 145.994 116.505 C 147.394 115.163,148.539 114.018,148.539 113.960 C 148.539 113.683,148.155 114.036,145.889 116.400 M364.588 115.174 C 364.588 115.382,364.831 115.975,365.127 116.494 C 365.424 117.012,365.666 117.267,365.666 117.059 C 365.666 116.852,365.424 116.258,365.127 115.740 C 364.831 115.221,364.588 114.967,364.588 115.174 M84.072 119.679 C 84.072 119.783,84.581 120.131,85.203 120.452 C 85.825 120.774,86.334 120.952,86.334 120.849 C 86.334 120.745,85.825 120.397,85.203 120.075 C 84.581 119.754,84.072 119.575,84.072 119.679 M141.356 121.301 L 140.057 122.714 141.470 121.415 C 142.248 120.701,142.884 120.064,142.884 120.001 C 142.884 119.714,142.565 119.985,141.356 121.301 M369.302 126.296 C 369.441 126.814,369.711 127.493,369.903 127.804 C 370.146 128.197,370.176 128.082,370.001 127.427 C 369.862 126.909,369.591 126.230,369.399 125.919 C 369.156 125.526,369.127 125.641,369.302 126.296 M120.907 129.511 C 120.350 130.646,119.975 131.574,120.073 131.574 C 120.327 131.574,122.228 127.758,122.059 127.589 C 121.982 127.511,121.463 128.376,120.907 129.511 M370.433 129.312 C 370.572 129.830,370.842 130.509,371.034 130.820 C 371.277 131.213,371.307 131.098,371.132 130.443 C 370.993 129.925,370.722 129.246,370.530 128.935 C 370.287 128.542,370.258 128.657,370.433 129.312 M126.654 142.921 C 126.221 143.770,125.931 144.530,126.010 144.609 C 126.089 144.688,126.523 143.993,126.974 143.064 C 128.001 140.950,127.724 140.825,126.654 142.921 M55.635 143.100 C 55.496 143.652,55.455 144.177,55.544 144.266 C 55.633 144.354,55.819 143.975,55.958 143.423 C 56.097 142.870,56.137 142.345,56.049 142.257 C 55.960 142.168,55.774 142.547,55.635 143.100 M304.697 145.322 C 305.358 146.664,305.961 147.699,306.037 147.623 C 306.206 147.454,303.927 142.884,303.674 142.884 C 303.575 142.884,304.035 143.981,304.697 145.322 M376.701 150.613 C 376.701 151.027,376.837 151.791,377.003 152.309 C 377.242 153.055,377.305 153.095,377.305 152.498 C 377.305 152.083,377.169 151.320,377.003 150.801 C 376.764 150.055,376.701 150.016,376.701 150.613 M95.153 170.971 C 95.154 173.874,95.213 175.011,95.285 173.499 C 95.357 171.987,95.356 169.612,95.284 168.221 C 95.212 166.830,95.153 168.068,95.153 170.971 M50.229 173.421 C 50.229 174.147,50.306 174.444,50.401 174.081 C 50.496 173.718,50.496 173.124,50.401 172.762 C 50.306 172.399,50.229 172.696,50.229 173.421 M37.418 174.741 C 37.423 175.570,37.500 175.865,37.590 175.396 C 37.680 174.927,37.677 174.249,37.582 173.888 C 37.488 173.528,37.414 173.911,37.418 174.741 M49.888 178.511 C 49.890 179.962,49.958 180.510,50.040 179.728 C 50.121 178.945,50.120 177.758,50.036 177.089 C 49.953 176.419,49.886 177.059,49.888 178.511 M392.940 178.322 C 392.940 179.255,393.013 179.637,393.103 179.171 C 393.193 178.704,393.193 177.941,393.103 177.474 C 393.013 177.008,392.940 177.389,392.940 178.322 M37.080 181.150 C 37.079 183.016,37.143 183.827,37.222 182.952 C 37.301 182.077,37.302 180.550,37.224 179.559 C 37.146 178.568,37.081 179.284,37.080 181.150 M116.212 181.150 C 116.216 181.979,116.293 182.274,116.384 181.805 C 116.474 181.336,116.470 180.658,116.376 180.297 C 116.282 179.937,116.208 180.320,116.212 181.150 M49.539 188.501 C 49.539 191.715,49.597 193.030,49.668 191.423 C 49.738 189.816,49.738 187.187,49.668 185.580 C 49.597 183.973,49.539 185.287,49.539 188.501 M336.012 185.108 C 336.012 186.041,336.086 186.423,336.176 185.957 C 336.265 185.490,336.265 184.727,336.176 184.260 C 336.086 183.794,336.012 184.175,336.012 185.108 M66.063 185.485 C 66.063 186.211,66.141 186.508,66.235 186.145 C 66.330 185.782,66.330 185.189,66.235 184.826 C 66.141 184.463,66.063 184.760,66.063 185.485 M314.138 186.051 C 314.143 186.880,314.220 187.175,314.310 186.706 C 314.400 186.237,314.397 185.559,314.302 185.198 C 314.208 184.838,314.134 185.221,314.138 186.051 M367.698 190.009 C 367.698 191.357,367.767 191.909,367.850 191.235 C 367.934 190.561,367.934 189.458,367.850 188.784 C 367.767 188.110,367.698 188.662,367.698 190.009 M116.220 191.140 C 116.220 192.074,116.293 192.455,116.383 191.989 C 116.473 191.522,116.473 190.759,116.383 190.292 C 116.293 189.826,116.220 190.207,116.220 191.140 M88.313 192.154 C 88.676 192.249,89.270 192.249,89.632 192.154 C 89.995 192.059,89.698 191.982,88.973 191.982 C 88.247 191.982,87.950 192.059,88.313 192.154 M314.146 194.156 C 314.146 195.090,314.220 195.471,314.309 195.005 C 314.399 194.538,314.399 193.775,314.309 193.308 C 314.220 192.842,314.146 193.223,314.146 194.156 M37.078 196.795 C 37.078 198.558,37.143 199.279,37.222 198.398 C 37.302 197.516,37.302 196.074,37.222 195.193 C 37.143 194.312,37.078 195.033,37.078 196.795 M392.945 195.476 C 392.948 196.513,393.021 196.892,393.107 196.319 C 393.194 195.746,393.192 194.898,393.102 194.434 C 393.013 193.970,392.942 194.439,392.945 195.476 M356.871 196.268 C 356.506 197.424,356.276 198.438,356.359 198.521 C 356.442 198.603,356.808 197.725,357.172 196.569 C 357.537 195.413,357.767 194.399,357.684 194.316 C 357.601 194.233,357.235 195.112,356.871 196.268 M49.894 198.869 C 49.895 200.528,49.961 201.160,50.041 200.273 C 50.121 199.386,50.119 198.029,50.038 197.257 C 49.957 196.485,49.892 197.210,49.894 198.869 M37.426 203.205 C 37.426 204.138,37.499 204.519,37.589 204.053 C 37.679 203.586,37.679 202.823,37.589 202.356 C 37.499 201.890,37.426 202.271,37.426 203.205 M50.236 204.147 C 50.241 204.976,50.318 205.271,50.408 204.802 C 50.498 204.333,50.495 203.655,50.400 203.294 C 50.306 202.934,50.232 203.318,50.236 204.147 M332.893 217.342 C 333.597 218.068,334.257 218.662,334.361 218.662 C 334.465 218.662,333.974 218.068,333.270 217.342 C 332.567 216.616,331.907 216.023,331.803 216.023 C 331.699 216.023,332.190 216.616,332.893 217.342 M120.857 220.170 C 120.996 220.688,121.266 221.367,121.459 221.678 C 121.701 222.071,121.731 221.956,121.556 221.301 C 121.417 220.782,121.146 220.104,120.954 219.793 C 120.711 219.400,120.682 219.515,120.857 220.170 M333.064 223.657 L 331.574 225.259 333.176 223.769 C 334.666 222.383,334.952 222.055,334.667 222.055 C 334.605 222.055,333.884 222.776,333.064 223.657 M323.262 223.598 C 322.930 224.239,322.726 224.831,322.808 224.912 C 322.889 224.994,323.238 224.470,323.583 223.746 C 324.359 222.121,324.090 221.996,323.262 223.598 M376.835 224.149 C 376.693 224.906,376.653 225.600,376.745 225.692 C 376.837 225.784,377.028 225.241,377.170 224.484 C 377.312 223.728,377.353 223.033,377.261 222.941 C 377.169 222.849,376.977 223.393,376.835 224.149 M357.776 227.144 C 358.479 227.870,359.139 228.464,359.243 228.464 C 359.347 228.464,358.856 227.870,358.153 227.144 C 357.449 226.418,356.789 225.825,356.685 225.825 C 356.582 225.825,357.072 226.418,357.776 227.144 M376.081 227.542 C 375.939 228.299,375.899 228.993,375.991 229.085 C 376.083 229.177,376.274 228.634,376.416 227.877 C 376.558 227.121,376.599 226.426,376.507 226.334 C 376.415 226.242,376.223 226.786,376.081 227.542 M330.357 230.349 C 330.357 231.282,330.431 231.664,330.521 231.197 C 330.610 230.730,330.610 229.967,330.521 229.500 C 330.431 229.034,330.357 229.416,330.357 230.349 M304.884 231.679 C 304.328 232.813,303.953 233.742,304.051 233.742 C 304.304 233.742,306.206 229.926,306.037 229.756 C 305.959 229.679,305.441 230.544,304.884 231.679 M41.894 231.668 C 41.876 231.876,42.098 232.893,42.386 233.930 C 42.675 234.967,42.913 235.476,42.916 235.061 C 42.921 234.259,41.949 231.030,41.894 231.668 M55.095 232.611 C 55.095 232.922,55.241 233.516,55.419 233.930 C 55.624 234.406,55.743 234.475,55.743 234.119 C 55.743 233.808,55.598 233.214,55.419 232.799 C 55.215 232.324,55.095 232.254,55.095 232.611 M360.510 233.930 C 360.514 234.760,360.591 235.055,360.681 234.586 C 360.772 234.117,360.768 233.438,360.674 233.078 C 360.579 232.717,360.506 233.101,360.510 233.930 M126.673 235.250 C 127.096 236.079,127.527 236.758,127.631 236.758 C 127.734 236.758,127.473 236.079,127.050 235.250 C 126.627 234.420,126.196 233.742,126.092 233.742 C 125.988 233.742,126.250 234.420,126.673 235.250 M55.849 235.250 C 55.849 235.561,55.995 236.155,56.173 236.569 C 56.378 237.045,56.497 237.114,56.497 236.758 C 56.497 236.447,56.352 235.853,56.173 235.438 C 55.969 234.963,55.849 234.893,55.849 235.250 M324.599 242.601 C 325.303 243.327,325.963 243.921,326.067 243.921 C 326.171 243.921,325.680 243.327,324.976 242.601 C 324.273 241.876,323.613 241.282,323.509 241.282 C 323.405 241.282,323.896 241.876,324.599 242.601 M357.837 244.125 C 357.205 245.512,357.326 245.808,358.009 244.547 C 358.328 243.959,358.518 243.407,358.432 243.320 C 358.346 243.234,358.078 243.596,357.837 244.125 M369.882 248.487 C 369.649 249.153,369.525 249.764,369.606 249.845 C 369.687 249.925,369.943 249.446,370.175 248.780 C 370.407 248.114,370.531 247.503,370.451 247.422 C 370.370 247.341,370.114 247.820,369.882 248.487 M140.622 255.796 C 141.325 256.522,141.986 257.116,142.089 257.116 C 142.193 257.116,141.702 256.522,140.999 255.796 C 140.296 255.071,139.635 254.477,139.532 254.477 C 139.428 254.477,139.919 255.071,140.622 255.796 M284.819 260.603 L 280.679 264.844 284.920 260.704 C 288.859 256.858,289.332 256.362,289.060 256.362 C 289.005 256.362,287.097 258.270,284.819 260.603 M363.132 264.480 C 362.471 265.821,362.011 266.918,362.109 266.918 C 362.362 266.918,364.641 262.348,364.473 262.179 C 364.397 262.103,363.794 263.138,363.132 264.480 M376.687 264.484 C 376.055 265.870,376.176 266.166,376.859 264.905 C 377.178 264.317,377.368 263.765,377.282 263.679 C 377.196 263.592,376.928 263.955,376.687 264.484 M67.489 265.444 C 67.486 265.566,67.989 266.584,68.608 267.706 C 69.845 269.951,70.190 269.990,69.006 267.751 C 68.134 266.101,67.497 265.133,67.489 265.444 M297.626 267.330 C 297.294 267.971,297.090 268.563,297.171 268.645 C 297.253 268.727,297.602 268.202,297.947 267.479 C 298.722 265.853,298.454 265.729,297.626 267.330 M55.308 269.358 C 55.865 270.493,56.383 271.358,56.461 271.280 C 56.630 271.111,54.728 267.295,54.475 267.295 C 54.377 267.295,54.752 268.223,55.308 269.358 M297.832 270.429 C 297.832 270.494,298.384 271.045,299.057 271.654 L 300.283 272.762 299.175 271.536 C 298.143 270.394,297.832 270.138,297.832 270.429 M337.983 272.196 C 339.004 273.233,339.925 274.081,340.028 274.081 C 340.132 274.081,339.381 273.233,338.360 272.196 C 337.339 271.159,336.419 270.311,336.315 270.311 C 336.211 270.311,336.962 271.159,337.983 272.196 M302.356 274.576 C 302.356 274.641,302.908 275.192,303.582 275.801 L 304.807 276.909 303.699 275.683 C 302.667 274.541,302.356 274.285,302.356 274.576 M306.880 278.794 C 307.584 279.519,308.244 280.113,308.348 280.113 C 308.451 280.113,307.961 279.519,307.257 278.794 C 306.554 278.068,305.894 277.474,305.790 277.474 C 305.686 277.474,306.177 278.068,306.880 278.794 M148.539 281.004 C 148.539 281.108,149.048 281.555,149.670 281.998 C 150.292 282.441,150.801 282.719,150.801 282.615 C 150.801 282.511,150.292 282.064,149.670 281.621 C 149.048 281.178,148.539 280.901,148.539 281.004 M175.683 281.810 C 176.202 282.106,176.795 282.348,177.003 282.348 C 177.210 282.348,176.956 282.106,176.437 281.810 C 175.919 281.513,175.325 281.271,175.118 281.271 C 174.910 281.271,175.165 281.513,175.683 281.810 M311.766 283.223 C 312.690 284.208,313.496 285.014,313.556 285.014 C 313.839 285.014,313.540 284.676,311.876 283.113 L 310.085 281.433 311.766 283.223 M316.682 287.842 C 317.386 288.567,318.046 289.161,318.150 289.161 C 318.253 289.161,317.763 288.567,317.059 287.842 C 316.356 287.116,315.696 286.522,315.592 286.522 C 315.488 286.522,315.979 287.116,316.682 287.842 M201.607 289.051 C 202.076 289.141,202.754 289.138,203.115 289.043 C 203.475 288.949,203.091 288.875,202.262 288.879 C 201.433 288.883,201.138 288.961,201.607 289.051 M227.427 289.044 C 227.790 289.139,228.384 289.139,228.746 289.044 C 229.109 288.949,228.812 288.872,228.087 288.872 C 227.361 288.872,227.064 288.949,227.427 289.044 M204.812 289.432 C 205.385 289.518,206.233 289.516,206.697 289.427 C 207.161 289.337,206.692 289.266,205.655 289.269 C 204.618 289.272,204.239 289.345,204.812 289.432 M223.845 289.427 C 224.312 289.517,225.075 289.517,225.542 289.427 C 226.008 289.337,225.627 289.264,224.694 289.264 C 223.761 289.264,223.379 289.337,223.845 289.427 M211.612 289.819 C 213.645 289.887,216.868 289.887,218.775 289.819 C 220.683 289.751,219.020 289.695,215.080 289.695 C 211.140 289.696,209.580 289.752,211.612 289.819 M295.301 295.759 C 295.304 296.795,295.377 297.175,295.464 296.602 C 295.550 296.029,295.548 295.180,295.459 294.717 C 295.369 294.253,295.298 294.722,295.301 295.759 M281.276 294.910 C 281.362 294.962,281.942 295.429,282.564 295.947 L 283.695 296.890 282.781 295.853 C 282.278 295.283,281.698 294.816,281.493 294.816 C 281.287 294.816,281.189 294.859,281.276 294.910 M283.865 298.690 C 284.048 300.244,284.056 300.251,284.184 299.010 C 284.256 298.309,284.171 297.593,283.996 297.417 C 283.820 297.242,283.761 297.814,283.865 298.690 M181.527 300.345 C 182.149 300.674,182.994 301.218,183.405 301.555 C 184.111 302.134,184.123 302.130,183.621 301.483 C 183.089 300.797,181.263 299.704,180.697 299.732 C 180.532 299.741,180.905 300.016,181.527 300.345 M91.235 301.414 C 91.938 302.139,92.598 302.733,92.702 302.733 C 92.806 302.733,92.315 302.139,91.612 301.414 C 90.908 300.688,90.248 300.094,90.144 300.094 C 90.041 300.094,90.531 300.688,91.235 301.414 M281.786 302.828 L 280.679 304.053 281.904 302.945 C 282.578 302.336,283.129 301.785,283.129 301.720 C 283.129 301.429,282.818 301.685,281.786 302.828 M237.611 303.004 C 238.184 303.090,239.033 303.088,239.496 302.999 C 239.960 302.909,239.491 302.838,238.454 302.841 C 237.418 302.844,237.038 302.917,237.611 303.004 M264.467 303.864 C 264.789 304.486,265.137 304.995,265.241 304.995 C 265.345 304.995,265.166 304.486,264.844 303.864 C 264.523 303.242,264.175 302.733,264.071 302.733 C 263.967 302.733,264.146 303.242,264.467 303.864 M194.251 304.501 C 194.614 304.596,195.207 304.596,195.570 304.501 C 195.933 304.406,195.636 304.329,194.910 304.329 C 194.185 304.329,193.888 304.406,194.251 304.501 M220.257 307.257 C 220.257 307.983,220.335 308.280,220.430 307.917 C 220.524 307.554,220.524 306.960,220.430 306.598 C 220.335 306.235,220.257 306.532,220.257 307.257 M189.430 308.483 L 187.559 310.462 189.538 308.591 C 190.627 307.562,191.517 306.671,191.517 306.612 C 191.517 306.330,191.168 306.643,189.430 308.483 M121.425 307.650 C 121.408 307.970,122.201 308.988,123.186 309.912 L 124.976 311.593 123.419 309.896 C 122.563 308.963,121.771 307.945,121.658 307.634 C 121.481 307.142,121.451 307.144,121.425 307.650 M329.877 310.085 C 328.333 311.640,327.154 312.912,327.257 312.912 C 327.361 312.912,328.710 311.640,330.254 310.085 C 331.799 308.530,332.978 307.257,332.875 307.257 C 332.771 307.257,331.422 308.530,329.877 310.085 M302.388 307.776 C 302.773 308.125,305.749 309.515,305.749 309.346 C 305.749 309.132,302.904 307.634,302.497 307.634 C 302.350 307.634,302.301 307.698,302.388 307.776 M148.140 308.603 C 147.870 308.928,147.340 309.114,146.963 309.015 C 146.585 308.916,146.371 308.989,146.487 309.177 C 146.836 309.741,147.626 309.566,148.351 308.765 C 148.726 308.351,148.943 308.011,148.832 308.011 C 148.722 308.011,148.410 308.278,148.140 308.603 M204.123 309.237 L 203.016 310.462 204.241 309.355 C 204.915 308.746,205.467 308.194,205.467 308.129 C 205.467 307.838,205.155 308.094,204.123 309.237 M346.630 310.745 L 345.523 311.970 346.748 310.863 C 347.422 310.254,347.974 309.702,347.974 309.637 C 347.974 309.346,347.663 309.602,346.630 310.745 M101.775 311.876 C 103.337 313.540,103.676 313.839,103.676 313.556 C 103.676 313.496,102.870 312.690,101.885 311.766 L 100.094 310.085 101.775 311.876 M220.290 313.289 C 220.290 314.637,220.359 315.189,220.442 314.515 C 220.526 313.841,220.526 312.738,220.442 312.064 C 220.359 311.390,220.290 311.942,220.290 313.289 M196.979 316.400 L 192.083 321.395 197.078 316.499 C 201.718 311.952,202.244 311.404,201.974 311.404 C 201.919 311.404,199.671 313.652,196.979 316.400 M88.030 315.928 C 89.679 317.587,91.113 318.944,91.217 318.944 C 91.321 318.944,90.056 317.587,88.407 315.928 C 86.758 314.270,85.324 312.912,85.220 312.912 C 85.117 312.912,86.381 314.270,88.030 315.928 M233.063 313.742 C 232.814 313.991,232.634 314.627,232.662 315.156 L 232.713 316.117 232.887 315.174 C 232.982 314.656,233.234 314.020,233.447 313.761 C 233.941 313.159,233.659 313.145,233.063 313.742 M339.862 317.908 L 335.721 322.149 339.962 318.008 C 343.902 314.162,344.375 313.666,344.103 313.666 C 344.048 313.666,342.139 315.575,339.862 317.908 M105.938 315.740 C 106.641 316.466,107.302 317.059,107.405 317.059 C 107.509 317.059,107.018 316.466,106.315 315.740 C 105.611 315.014,104.951 314.420,104.847 314.420 C 104.744 314.420,105.234 315.014,105.938 315.740 M251.192 316.117 C 251.195 317.154,251.268 317.533,251.354 316.960 C 251.441 316.387,251.439 315.539,251.349 315.075 C 251.260 314.611,251.189 315.080,251.192 316.117 M220.634 318.944 C 220.634 319.670,220.712 319.967,220.807 319.604 C 220.901 319.241,220.901 318.648,220.807 318.285 C 220.712 317.922,220.634 318.219,220.634 318.944 M174.723 320.924 L 173.233 322.526 174.835 321.036 C 176.325 319.650,176.611 319.321,176.325 319.321 C 176.264 319.321,175.543 320.042,174.723 320.924 M95.570 323.091 C 96.591 324.128,97.512 324.976,97.615 324.976 C 97.719 324.976,96.968 324.128,95.947 323.091 C 94.926 322.055,94.006 321.206,93.902 321.206 C 93.798 321.206,94.549 322.055,95.570 323.091 M140.790 321.984 C 140.391 322.424,139.794 322.684,139.411 322.584 C 139.040 322.487,138.831 322.562,138.947 322.750 C 139.316 323.346,140.086 323.121,140.999 322.149 C 141.486 321.631,141.796 321.206,141.689 321.206 C 141.581 321.206,141.176 321.556,140.790 321.984 M278.228 326.861 C 278.671 327.484,279.118 327.992,279.222 327.992 C 279.326 327.992,279.048 327.484,278.605 326.861 C 278.162 326.239,277.715 325.730,277.611 325.730 C 277.508 325.730,277.785 326.239,278.228 326.861 M308.954 327.837 L 307.823 328.809 309.048 327.998 C 309.722 327.552,310.273 327.114,310.273 327.024 C 310.273 326.742,310.114 326.840,308.954 327.837 M100.283 327.356 C 100.283 327.421,100.834 327.973,101.508 328.582 L 102.733 329.689 101.626 328.464 C 100.594 327.322,100.283 327.065,100.283 327.356 M242.978 328.369 C 242.503 328.574,242.433 328.693,242.790 328.693 C 243.101 328.693,243.695 328.548,244.109 328.369 C 244.585 328.165,244.654 328.045,244.298 328.045 C 243.987 328.045,243.393 328.191,242.978 328.369 M178.487 331.480 L 177.380 332.705 178.605 331.598 C 179.747 330.566,180.004 330.254,179.712 330.254 C 179.647 330.254,179.096 330.806,178.487 331.480 M235.026 330.777 C 234.915 331.064,234.882 332.040,234.951 332.945 C 235.073 334.537,235.083 334.520,235.258 332.422 C 235.441 330.221,235.387 329.836,235.026 330.777 M160.219 332.336 C 159.346 333.265,159.342 333.301,160.038 333.938 C 160.715 334.558,160.726 334.557,160.244 333.919 C 159.807 333.339,159.857 333.123,160.614 332.317 C 161.095 331.805,161.404 331.385,161.300 331.385 C 161.196 331.385,160.710 331.813,160.219 332.336 M175.848 334.119 L 174.741 335.344 175.966 334.237 C 177.108 333.205,177.365 332.893,177.073 332.893 C 177.008 332.893,176.457 333.445,175.848 334.119 M162.488 335.344 C 163.007 335.640,163.600 335.883,163.808 335.883 C 164.015 335.883,163.761 335.640,163.242 335.344 C 162.724 335.048,162.130 334.805,161.923 334.805 C 161.715 334.805,161.970 335.048,162.488 335.344 M235.379 340.245 C 235.380 341.904,235.447 342.536,235.526 341.649 C 235.606 340.762,235.605 339.405,235.524 338.633 C 235.443 337.861,235.378 338.586,235.379 340.245 M287.653 340.434 C 286.513 341.036,285.713 341.537,285.875 341.547 C 286.276 341.571,289.915 339.713,289.915 339.485 C 289.915 339.233,289.967 339.211,287.653 340.434 M157.587 347.533 C 157.898 347.725,158.577 347.996,159.095 348.135 C 159.750 348.310,159.865 348.280,159.472 348.037 C 159.161 347.845,158.483 347.574,157.964 347.436 C 157.309 347.260,157.194 347.290,157.587 347.533 M139.868 353.440 C 140.386 353.736,140.980 353.979,141.188 353.979 C 141.395 353.979,141.140 353.736,140.622 353.440 C 140.104 353.144,139.510 352.901,139.303 352.901 C 139.095 352.901,139.350 353.144,139.868 353.440 M288.030 354.006 C 287.304 354.403,286.880 354.728,287.088 354.728 C 287.295 354.728,288.058 354.403,288.784 354.006 C 289.510 353.608,289.934 353.283,289.727 353.283 C 289.519 353.283,288.756 353.608,288.030 354.006 M271.631 360.616 C 270.688 361.071,270.656 361.123,271.442 360.931 C 272.510 360.670,273.711 360.058,273.139 360.066 C 272.931 360.069,272.253 360.317,271.631 360.616 M205.372 370.106 C 205.839 370.196,206.602 370.196,207.069 370.106 C 207.535 370.016,207.154 369.942,206.221 369.942 C 205.287 369.942,204.906 370.016,205.372 370.106 M222.337 370.106 C 222.804 370.196,223.567 370.196,224.034 370.106 C 224.500 370.016,224.119 369.942,223.186 369.942 C 222.253 369.942,221.871 370.016,222.337 370.106 " stroke="none" fill="#8a8d6d" fill-rule="evenodd"></path><path id="path4" d="M212.740 7.443 C 214.148 7.516,216.353 7.515,217.641 7.442 C 218.928 7.368,217.776 7.309,215.080 7.310 C 212.385 7.310,211.331 7.370,212.740 7.443 M205.000 20.248 C 205.469 20.338,206.147 20.335,206.508 20.240 C 206.868 20.146,206.484 20.072,205.655 20.076 C 204.826 20.080,204.531 20.158,205.000 20.248 M223.850 20.248 C 224.319 20.338,224.997 20.335,225.358 20.240 C 225.718 20.146,225.335 20.072,224.505 20.076 C 223.676 20.080,223.381 20.158,223.850 20.248 M200.094 20.624 C 200.561 20.714,201.324 20.714,201.791 20.624 C 202.257 20.534,201.876 20.461,200.943 20.461 C 200.009 20.461,199.628 20.534,200.094 20.624 M228.369 20.624 C 228.836 20.714,229.599 20.714,230.066 20.624 C 230.533 20.534,230.151 20.461,229.218 20.461 C 228.285 20.461,227.903 20.534,228.369 20.624 M196.513 20.995 C 196.876 21.090,197.469 21.090,197.832 20.995 C 198.195 20.900,197.898 20.823,197.172 20.823 C 196.447 20.823,196.150 20.900,196.513 20.995 M232.328 20.995 C 232.691 21.090,233.285 21.090,233.648 20.995 C 234.010 20.900,233.713 20.823,232.988 20.823 C 232.262 20.823,231.965 20.900,232.328 20.995 M147.031 34.684 C 146.305 35.082,145.881 35.407,146.089 35.407 C 146.296 35.407,147.059 35.082,147.785 34.684 C 148.511 34.287,148.935 33.962,148.728 33.962 C 148.520 33.962,147.757 34.287,147.031 34.684 M182.092 51.084 C 183.428 52.432,184.606 53.534,184.710 53.534 C 184.813 53.534,183.805 52.432,182.469 51.084 C 181.134 49.736,179.956 48.633,179.852 48.633 C 179.748 48.633,180.757 49.736,182.092 51.084 M95.924 54.006 L 94.816 55.231 96.041 54.124 C 97.184 53.091,97.440 52.780,97.149 52.780 C 97.084 52.780,96.533 53.332,95.924 54.006 M88.393 61.546 L 86.522 63.525 88.501 61.654 C 90.341 59.916,90.654 59.566,90.372 59.566 C 90.313 59.566,89.422 60.457,88.393 61.546 M324.222 61.263 C 324.926 61.989,325.586 62.582,325.690 62.582 C 325.794 62.582,325.303 61.989,324.599 61.263 C 323.896 60.537,323.236 59.943,323.132 59.943 C 323.028 59.943,323.519 60.537,324.222 61.263 M341.942 60.815 C 341.942 60.880,342.493 61.432,343.167 62.041 L 344.392 63.148 343.285 61.923 C 342.253 60.781,341.942 60.524,341.942 60.815 M83.674 66.635 L 82.375 68.049 83.789 66.750 C 85.105 65.541,85.376 65.221,85.088 65.221 C 85.025 65.221,84.389 65.858,83.674 66.635 M332.328 68.992 C 334.186 70.858,335.790 72.385,335.894 72.385 C 335.997 72.385,334.563 70.858,332.705 68.992 C 330.847 67.125,329.243 65.598,329.139 65.598 C 329.036 65.598,330.470 67.125,332.328 68.992 M295.735 70.594 L 294.628 71.819 295.853 70.712 C 296.527 70.103,297.078 69.551,297.078 69.486 C 297.078 69.195,296.767 69.452,295.735 70.594 M188.863 71.725 C 190.425 73.389,190.763 73.689,190.763 73.406 C 190.763 73.345,189.958 72.539,188.973 71.615 L 187.182 69.934 188.863 71.725 M245.901 71.819 C 245.905 72.648,245.982 72.943,246.072 72.474 C 246.163 72.005,246.159 71.327,246.065 70.966 C 245.971 70.606,245.897 70.990,245.901 71.819 M94.038 73.987 L 92.931 75.212 94.156 74.105 C 95.299 73.073,95.555 72.762,95.264 72.762 C 95.199 72.762,94.647 73.313,94.038 73.987 M338.172 75.212 C 338.875 75.938,339.535 76.532,339.639 76.532 C 339.743 76.532,339.252 75.938,338.549 75.212 C 337.845 74.486,337.185 73.893,337.081 73.893 C 336.977 73.893,337.468 74.486,338.172 75.212 M244.380 77.066 C 244.151 77.570,243.572 78.056,243.094 78.148 C 242.228 78.313,242.228 78.314,243.064 78.365 C 243.852 78.413,245.405 76.759,244.976 76.330 C 244.878 76.232,244.610 76.563,244.380 77.066 M126.383 84.826 C 126.383 85.551,126.461 85.848,126.556 85.485 C 126.651 85.123,126.651 84.529,126.556 84.166 C 126.461 83.803,126.383 84.100,126.383 84.826 M221.018 87.725 C 221.381 87.819,221.975 87.819,222.337 87.725 C 222.700 87.630,222.403 87.552,221.678 87.552 C 220.952 87.552,220.655 87.630,221.018 87.725 M151.932 94.816 C 151.016 95.749,150.352 96.513,150.456 96.513 C 150.559 96.513,151.393 95.749,152.309 94.816 C 153.225 93.883,153.889 93.120,153.786 93.120 C 153.682 93.120,152.848 93.883,151.932 94.816 M140.045 97.361 L 137.795 99.717 140.151 97.467 C 142.340 95.377,142.680 95.005,142.401 95.005 C 142.343 95.005,141.282 96.065,140.045 97.361 M283.506 115.174 C 284.210 115.900,284.870 116.494,284.974 116.494 C 285.077 116.494,284.587 115.900,283.883 115.174 C 283.180 114.449,282.519 113.855,282.416 113.855 C 282.312 113.855,282.803 114.449,283.506 115.174 M142.295 119.981 L 141.188 121.206 142.413 120.099 C 143.087 119.490,143.638 118.939,143.638 118.874 C 143.638 118.583,143.327 118.839,142.295 119.981 M288.784 120.759 C 288.784 120.824,289.336 121.375,290.009 121.984 L 291.235 123.091 290.127 121.866 C 289.095 120.724,288.784 120.468,288.784 120.759 M91.612 158.836 C 91.612 158.901,92.163 159.452,92.837 160.061 L 94.062 161.169 92.955 159.943 C 91.923 158.801,91.612 158.545,91.612 158.836 M37.411 172.290 C 37.411 173.016,37.488 173.313,37.583 172.950 C 37.678 172.587,37.678 171.993,37.583 171.631 C 37.488 171.268,37.411 171.565,37.411 172.290 M85.643 174.996 C 85.595 176.324,85.417 176.802,84.920 176.931 C 84.302 177.093,84.302 177.107,84.932 177.148 C 85.787 177.203,86.046 176.515,85.857 174.686 C 85.712 173.284,85.704 173.295,85.643 174.996 M352.780 173.687 C 353.247 173.777,354.010 173.777,354.477 173.687 C 354.943 173.598,354.562 173.524,353.629 173.524 C 352.696 173.524,352.314 173.598,352.780 173.687 M37.034 176.814 C 37.034 177.540,37.111 177.837,37.206 177.474 C 37.301 177.111,37.301 176.517,37.206 176.155 C 37.111 175.792,37.034 176.089,37.034 176.814 M95.005 177.568 C 95.005 178.398,95.136 179.076,95.297 179.076 C 95.458 179.076,95.525 178.398,95.446 177.568 C 95.367 176.739,95.236 176.060,95.154 176.060 C 95.072 176.060,95.005 176.739,95.005 177.568 M116.220 178.322 C 116.220 179.255,116.293 179.637,116.383 179.171 C 116.473 178.704,116.473 177.941,116.383 177.474 C 116.293 177.008,116.220 177.389,116.220 178.322 M380.483 180.584 C 380.483 181.310,380.561 181.607,380.656 181.244 C 380.751 180.881,380.751 180.287,380.656 179.925 C 380.561 179.562,380.483 179.859,380.483 180.584 M49.872 182.658 C 49.875 183.695,49.948 184.074,50.035 183.501 C 50.122 182.928,50.119 182.080,50.030 181.616 C 49.940 181.152,49.869 181.621,49.872 182.658 M115.884 186.051 C 115.885 188.539,115.946 189.508,116.019 188.204 C 116.093 186.900,116.093 184.864,116.018 183.680 C 115.943 182.496,115.883 183.563,115.884 186.051 M36.703 185.297 C 36.702 187.163,36.766 187.974,36.845 187.099 C 36.924 186.224,36.925 184.697,36.847 183.706 C 36.769 182.715,36.704 183.431,36.703 185.297 M104.894 183.600 C 104.894 184.326,104.972 184.623,105.067 184.260 C 105.161 183.897,105.161 183.303,105.067 182.941 C 104.972 182.578,104.894 182.875,104.894 183.600 M358.255 190.009 C 358.255 190.943,358.329 191.324,358.419 190.858 C 358.509 190.391,358.509 189.628,358.419 189.161 C 358.329 188.695,358.255 189.076,358.255 190.009 M36.703 192.460 C 36.702 194.326,36.766 195.137,36.845 194.262 C 36.924 193.387,36.925 191.860,36.847 190.869 C 36.769 189.878,36.704 190.594,36.703 192.460 M116.225 194.345 C 116.228 195.382,116.301 195.761,116.387 195.188 C 116.474 194.615,116.472 193.767,116.382 193.303 C 116.293 192.839,116.222 193.308,116.225 194.345 M49.867 194.533 C 49.867 195.467,49.941 195.848,50.030 195.382 C 50.120 194.915,50.120 194.152,50.030 193.685 C 49.941 193.219,49.867 193.600,49.867 194.533 M116.589 198.869 C 116.593 199.698,116.670 199.993,116.761 199.524 C 116.851 199.055,116.847 198.377,116.753 198.016 C 116.659 197.656,116.585 198.040,116.589 198.869 M330.631 198.421 C 330.631 198.486,331.183 199.038,331.857 199.647 L 333.082 200.754 331.975 199.529 C 330.943 198.387,330.631 198.130,330.631 198.421 M37.041 201.131 C 37.046 201.960,37.123 202.255,37.213 201.786 C 37.303 201.317,37.300 200.639,37.205 200.278 C 37.111 199.918,37.037 200.302,37.041 201.131 M339.585 203.471 C 340.052 203.560,340.815 203.560,341.282 203.471 C 341.748 203.381,341.367 203.307,340.434 203.307 C 339.500 203.307,339.119 203.381,339.585 203.471 M363.996 203.959 L 362.865 204.246 363.880 204.291 C 364.438 204.315,364.999 204.166,365.127 203.959 C 365.255 203.751,365.308 203.602,365.244 203.626 C 365.180 203.651,364.618 203.800,363.996 203.959 M346.253 245.146 L 345.146 246.371 346.371 245.264 C 347.045 244.655,347.597 244.104,347.597 244.039 C 347.597 243.748,347.286 244.004,346.253 245.146 M331.296 246.072 C 331.765 246.163,332.443 246.159,332.804 246.065 C 333.164 245.971,332.780 245.897,331.951 245.901 C 331.122 245.905,330.827 245.982,331.296 246.072 M140.622 256.089 C 140.622 256.146,141.937 257.460,143.544 259.010 L 146.466 261.828 143.648 258.907 C 141.030 256.193,140.622 255.813,140.622 256.089 M365.377 259.206 C 364.745 260.592,364.866 260.888,365.549 259.627 C 365.868 259.039,366.058 258.487,365.972 258.401 C 365.886 258.314,365.618 258.677,365.377 259.206 M284.048 261.734 L 282.941 262.959 284.166 261.852 C 284.840 261.243,285.391 260.692,285.391 260.627 C 285.391 260.336,285.080 260.592,284.048 261.734 M147.408 262.889 C 147.408 262.954,147.959 263.505,148.633 264.114 L 149.859 265.221 148.751 263.996 C 147.719 262.854,147.408 262.598,147.408 262.889 M326.484 264.090 C 327.188 264.816,327.848 265.410,327.952 265.410 C 328.056 265.410,327.565 264.816,326.861 264.090 C 326.158 263.365,325.498 262.771,325.394 262.771 C 325.290 262.771,325.781 263.365,326.484 264.090 M311.404 264.774 C 311.404 264.839,311.956 265.390,312.630 265.999 L 313.855 267.107 312.748 265.881 C 311.715 264.739,311.404 264.483,311.404 264.774 M301.225 273.893 C 301.929 274.618,302.589 275.212,302.693 275.212 C 302.796 275.212,302.306 274.618,301.602 273.893 C 300.899 273.167,300.239 272.573,300.135 272.573 C 300.031 272.573,300.522 273.167,301.225 273.893 M322.714 273.822 C 322.714 273.887,323.266 274.438,323.940 275.047 L 325.165 276.155 324.058 274.929 C 323.025 273.787,322.714 273.531,322.714 273.822 M309.881 281.715 C 310.805 282.700,311.611 283.506,311.671 283.506 C 311.954 283.506,311.655 283.168,309.991 281.605 L 308.200 279.925 309.881 281.715 M286.554 283.270 C 286.942 283.617,289.161 284.637,289.161 284.468 C 289.161 284.251,287.071 283.129,286.667 283.129 C 286.518 283.129,286.467 283.192,286.554 283.270 M337.028 302.639 L 334.967 304.807 337.135 302.746 C 339.149 300.832,339.475 300.471,339.195 300.471 C 339.136 300.471,338.161 301.447,337.028 302.639 M96.324 306.503 C 98.390 308.577,100.165 310.273,100.269 310.273 C 100.372 310.273,98.767 308.577,96.701 306.503 C 94.635 304.430,92.861 302.733,92.757 302.733 C 92.653 302.733,94.258 304.430,96.324 306.503 M234.967 302.993 C 235.330 303.088,235.924 303.088,236.287 302.993 C 236.649 302.898,236.352 302.821,235.627 302.821 C 234.901 302.821,234.604 302.898,234.967 302.993 M331.742 307.917 L 330.443 309.331 331.857 308.032 C 333.173 306.822,333.444 306.503,333.156 306.503 C 333.093 306.503,332.457 307.139,331.742 307.917 M219.924 309.896 C 219.924 311.659,219.989 312.380,220.069 311.499 C 220.148 310.617,220.148 309.175,220.069 308.294 C 219.989 307.413,219.924 308.134,219.924 309.896 M284.405 312.702 C 284.290 313.001,284.263 313.552,284.344 313.927 C 284.436 314.353,284.565 314.149,284.688 313.384 C 284.893 312.100,284.759 311.778,284.405 312.702 M87.653 315.928 C 88.463 316.758,89.211 317.436,89.314 317.436 C 89.418 317.436,88.840 316.758,88.030 315.928 C 87.220 315.099,86.473 314.420,86.369 314.420 C 86.265 314.420,86.843 315.099,87.653 315.928 M220.272 317.059 C 220.272 317.992,220.346 318.374,220.436 317.908 C 220.526 317.441,220.526 316.678,220.436 316.211 C 220.346 315.745,220.272 316.126,220.272 317.059 M232.698 317.059 C 232.698 317.785,232.776 318.082,232.871 317.719 C 232.965 317.356,232.965 316.762,232.871 316.400 C 232.776 316.037,232.698 316.334,232.698 317.059 M93.308 321.206 C 94.539 322.451,95.631 323.468,95.735 323.468 C 95.839 323.468,94.916 322.451,93.685 321.206 C 92.454 319.962,91.362 318.944,91.258 318.944 C 91.155 318.944,92.077 319.962,93.308 321.206 M192.436 321.301 L 191.329 322.526 192.554 321.419 C 193.228 320.810,193.779 320.258,193.779 320.193 C 193.779 319.902,193.468 320.159,192.436 321.301 M220.642 321.395 C 220.646 322.224,220.723 322.519,220.813 322.050 C 220.903 321.581,220.900 320.903,220.806 320.542 C 220.711 320.182,220.638 320.566,220.642 321.395 M99.340 326.861 C 100.361 327.898,101.282 328.746,101.385 328.746 C 101.489 328.746,100.738 327.898,99.717 326.861 C 98.696 325.825,97.776 324.976,97.672 324.976 C 97.568 324.976,98.319 325.825,99.340 326.861 M174.162 336.192 L 172.102 338.360 174.270 336.299 C 176.283 334.385,176.610 334.025,176.330 334.025 C 176.271 334.025,175.296 335.000,174.162 336.192 M221.395 357.282 C 221.758 357.376,222.352 357.376,222.714 357.282 C 223.077 357.187,222.780 357.109,222.055 357.109 C 221.329 357.109,221.032 357.187,221.395 357.282 " stroke="none" fill="#abad8b" fill-rule="evenodd"></path></g></svg>